<svg width="680" height="240" viewBox="0 0 680 240" fill="none" xmlns="http://www.w3.org/2000/svg">
<g clip-path="url(#clip0_2030_2567)">
<rect width="680" height="240" fill="#041952"/>
<g filter="url(#filter0_f_2030_2567)">
<circle cx="364.102" cy="613.102" r="816.102" fill="#143AB7"/>
</g>
<path d="M248.281 120.048C248.168 136.06 235.479 149.024 219.246 149.119C203.113 149.214 190.018 136.128 190 120.075C189.982 104.041 203.09 90.9281 219.219 91.0003C235.344 91.077 248.15 103.937 248.277 120.048H248.281ZM226.817 127.083C225.018 124.878 223.314 122.745 221.555 120.662C221.095 120.116 221.167 119.782 221.591 119.282C222.687 117.988 223.72 116.648 224.797 115.305C224.161 114.538 223.598 113.857 222.967 113.091C221.681 114.678 220.473 116.166 219.201 117.731C216.636 114.592 214.124 111.522 211.54 108.365C208.33 112.302 205.227 116.107 202.094 119.954C207.798 126.961 213.457 133.901 219.174 140.926C221.118 138.536 222.958 136.272 224.811 133.991C222.813 131.556 220.879 129.206 218.872 126.763C218.403 127.317 218.038 127.804 217.619 128.232C217.123 128.738 217.114 129.143 217.605 129.693C218.669 130.897 219.679 132.155 220.671 133.418C220.847 133.639 220.987 134.121 220.87 134.297C220.374 135.023 219.774 135.682 219.165 136.421C214.746 130.992 210.413 125.685 206.116 120.35C205.971 120.17 206.048 119.624 206.219 119.404C207.527 117.731 208.88 116.094 210.224 114.452C210.643 113.938 211.08 113.438 211.567 112.861C213.542 115.282 215.445 117.618 217.384 119.994C216.122 121.577 214.882 123.128 213.624 124.711C214.255 125.477 214.837 126.172 215.454 126.92C216.757 125.311 217.966 123.823 219.228 122.262C221.785 125.387 224.274 128.435 226.835 131.565C230.023 127.633 233.117 123.818 236.26 119.94C230.569 112.955 224.91 106.016 219.179 98.9815C217.321 101.254 215.558 103.382 213.854 105.551C213.718 105.723 213.858 106.268 214.047 106.507C215.671 108.586 217.335 110.633 218.976 112.698C219.129 112.892 219.206 113.149 219.373 113.488C220.171 112.5 220.725 111.806 221.312 111.08C220.063 109.515 218.841 108.022 217.673 106.489C217.492 106.255 217.38 105.741 217.515 105.538C217.988 104.825 218.588 104.194 219.188 103.473C223.693 109.005 228.148 114.475 232.612 119.954C230.659 122.362 228.779 124.675 226.826 127.083H226.817Z" fill="white"/>
<path d="M286.036 127.146C283.813 131.641 280.368 134.257 275.408 134.658C271.977 134.933 268.653 134.554 265.695 132.57C262.3 130.293 260.514 127.047 259.969 123.061C259.459 119.336 260.009 115.805 262.12 112.64C264.586 108.938 268.144 107.039 272.567 106.791C276.13 106.593 279.502 107.148 282.361 109.52C283.858 110.76 285.143 112.419 285.996 114.353C284.526 114.885 283.069 115.445 281.586 115.9C281.392 115.959 280.963 115.553 280.774 115.273C277.717 110.755 271.142 110.773 267.986 113.699C265.078 116.396 264.519 119.796 265.398 123.43C266.2 126.758 268.369 128.995 271.814 129.612C275.404 130.253 278.533 129.337 280.724 126.208C281.144 125.613 281.505 125.419 282.217 125.725C283.425 126.239 284.679 126.65 286.041 127.146H286.036Z" fill="white"/>
<path d="M336.818 107.179C339.069 107.179 341.251 107.143 343.438 107.188C345.363 107.229 347.338 107.116 349.205 107.499C354.373 108.568 356.943 113.145 356.258 118.087C355.536 123.299 352.064 126.239 346.77 126.361C345.197 126.397 343.618 126.366 341.905 126.366V134.234H336.818V107.179ZM341.887 112.175C341.887 115.129 341.878 118.073 341.914 121.013C341.914 121.162 342.293 121.424 342.5 121.428C343.916 121.46 345.336 121.518 346.743 121.41C349.336 121.216 350.937 119.62 351.072 117.235C351.234 114.425 350.071 112.577 347.55 112.22C345.733 111.968 343.853 112.171 341.882 112.171L341.887 112.175Z" fill="white"/>
<path d="M308.131 134.261H302.946C302.928 133.901 302.901 133.562 302.901 133.224C302.901 129.657 302.905 126.091 302.896 122.524C302.887 119.931 301.557 118.921 299.032 119.575C298.599 119.688 298.17 119.832 297.76 120.012C296.168 120.702 295.239 121.663 295.366 123.656C295.564 126.794 295.42 129.95 295.415 133.102C295.415 133.477 295.375 133.855 295.352 134.257H290.379V107.242H295.393V116.712C295.88 116.427 296.204 116.247 296.516 116.053C298.139 115.061 299.87 114.48 301.796 114.448C305.34 114.394 307.468 115.868 307.725 119.363C308.091 124.282 308.009 129.234 308.122 134.266L308.131 134.261Z" fill="white"/>
<path d="M468.522 114.443C474.79 114.511 478.659 118.601 478.555 125.103C478.465 130.622 474.312 134.856 468.157 134.744C462.71 134.645 458.124 130.699 458.304 124.255C458.467 118.389 462.557 114.38 468.527 114.443H468.522ZM468.41 129.775C471.377 129.784 473.401 127.691 473.406 124.607C473.41 121.536 471.39 119.349 468.486 119.3C465.614 119.246 463.508 121.451 463.495 124.517C463.481 127.619 465.488 129.766 468.41 129.779V129.775Z" fill="white"/>
<path d="M423.832 114.444C430.073 114.502 433.964 118.574 433.901 124.972C433.847 130.6 429.658 134.838 423.53 134.744C418.069 134.658 413.474 130.713 413.641 124.287C413.794 118.407 417.866 114.389 423.832 114.444ZM423.814 129.779C426.758 129.77 428.765 127.637 428.747 124.54C428.729 121.482 426.632 119.277 423.764 119.291C420.865 119.309 418.818 121.5 418.836 124.576C418.854 127.673 420.874 129.788 423.814 129.779Z" fill="white"/>
<path d="M384.395 114.443C390.581 114.489 394.518 118.569 394.459 124.882C394.405 130.78 390.234 134.771 384.178 134.712C378.095 134.654 374.172 130.582 374.218 124.377C374.263 118.416 378.375 114.398 384.39 114.443H384.395ZM384.305 129.775C387.29 129.766 389.301 127.691 389.305 124.607C389.31 121.505 387.19 119.259 384.291 119.295C381.428 119.331 379.408 121.482 379.394 124.512C379.376 127.61 381.405 129.779 384.305 129.775Z" fill="white"/>
<path d="M455.518 120.157C453.917 120.846 452.447 121.482 450.927 122.136C450.792 121.938 450.661 121.766 450.549 121.581C449.345 119.661 447.609 118.939 445.426 119.462C443.623 119.89 442.157 121.663 442.035 123.692C441.986 124.544 442.026 125.437 442.211 126.266C442.64 128.178 443.907 129.364 445.823 129.693C447.762 130.027 449.385 129.409 450.463 127.669C450.594 127.457 450.747 127.254 450.918 127.01C451.333 127.173 451.721 127.317 452.1 127.479C453.214 127.962 454.327 128.458 455.536 128.99C454.219 131.948 452.059 133.819 448.97 134.478C442.234 135.921 436.881 131.56 436.854 124.684C436.836 120.612 438.261 117.289 442.067 115.422C446.188 113.406 452.361 114.186 455.044 119.115C455.211 119.422 455.328 119.751 455.509 120.152L455.518 120.157Z" fill="white"/>
<path d="M405.281 119.498C405.281 122.429 405.241 125.126 405.299 127.818C405.322 128.959 406.224 129.703 407.45 129.721C408.113 129.73 408.776 129.608 409.52 129.536C409.52 130.97 409.542 132.345 409.493 133.72C409.484 133.932 409.159 134.252 408.925 134.311C406.904 134.834 404.898 134.789 403 133.855C400.934 132.841 400.222 130.979 400.159 128.85C400.082 126.185 400.132 123.516 400.127 120.847C400.127 120.468 400.127 120.084 400.127 119.534C399.266 119.534 398.504 119.53 397.742 119.534C397.282 119.534 397.034 119.39 397.043 118.867C397.07 117.586 397.052 116.306 397.052 114.876C397.814 114.876 398.508 114.854 399.203 114.885C399.775 114.912 400.073 114.746 400.186 114.123C400.38 113.05 400.646 111.991 400.948 110.944C401.024 110.678 401.349 110.309 401.575 110.295C402.756 110.232 403.942 110.264 405.25 110.264C405.25 111.237 405.25 112.126 405.25 113.014C405.25 114.253 405.885 114.872 407.157 114.872C407.892 114.872 408.631 114.872 409.443 114.872V119.494H405.272L405.281 119.498Z" fill="white"/>
<path d="M483.123 107.224H488.006C488.029 107.657 488.069 108.063 488.069 108.464C488.069 114.511 488.07 120.553 488.079 126.6C488.079 127.078 488.133 127.561 488.169 128.039C488.232 128.837 488.674 129.306 489.422 129.572C489.657 129.653 489.959 129.959 489.968 130.176C490.017 131.488 489.995 132.805 489.995 134.094C486.379 135.501 483.105 133.382 483.082 129.612C483.037 122.411 483.064 115.205 483.064 108.004C483.064 107.783 483.096 107.558 483.123 107.224Z" fill="white"/>
<path d="M360.753 114.89C361.903 114.89 362.99 114.863 364.072 114.917C364.261 114.926 364.514 115.233 364.599 115.453C364.766 115.864 364.829 116.315 364.978 116.914C365.33 116.63 365.591 116.423 365.844 116.211C367.355 114.93 369.041 114.209 371.079 114.493C371.679 114.579 371.927 114.809 371.913 115.408C371.891 116.468 371.882 117.532 371.913 118.587C371.936 119.273 371.638 119.39 371.002 119.453C369.641 119.584 368.279 119.787 366.953 120.116C366.124 120.323 365.745 120.959 365.763 121.942C365.83 125.667 365.79 129.396 365.79 133.125C365.79 133.472 365.79 133.819 365.79 134.225H360.744V114.89H360.753Z" fill="white"/>
<path d="M313.799 114.935H318.795V134.203H313.799V114.935Z" fill="white"/>
<path d="M316.306 105.565C318.137 105.583 319.368 106.823 319.382 108.667C319.395 110.52 318.11 111.756 316.189 111.729C314.399 111.706 313.159 110.462 313.159 108.69C313.159 106.809 314.426 105.547 316.306 105.565Z" fill="white"/>
</g>
<defs>
<filter id="filter0_f_2030_2567" x="-1452" y="-1203" width="3632.2" height="3632.21" filterUnits="userSpaceOnUse" color-interpolation-filters="sRGB">
<feFlood flood-opacity="0" result="BackgroundImageFix"/>
<feBlend mode="normal" in="SourceGraphic" in2="BackgroundImageFix" result="shape"/>
<feGaussianBlur stdDeviation="500" result="effect1_foregroundBlur_2030_2567"/>
</filter>
<clipPath id="clip0_2030_2567">
<rect width="680" height="240" fill="white"/>
</clipPath>
</defs>
</svg>
