<svg width="93" height="93" viewBox="0 0 93 93" fill="none" xmlns="http://www.w3.org/2000/svg">
<circle cx="46.5" cy="46.5" r="44.175" fill="white"/>
<path d="M93 46.5C92.9361 72.2125 72.2268 93 46.468 93C20.8371 93 0 72.1166 0 46.468C0.0319588 20.8515 20.901 -0.031944 46.5 3.66824e-05C72.2268 0.0320174 92.968 20.7875 93 46.532V46.5ZM86.9918 46.596C86.8959 24.1455 68.999 6.10836 46.5 6.10836C24.0649 6.10836 6.04021 24.1135 6.04021 46.596C6.04021 69.0784 24.033 87.0836 46.468 87.0836C68.9351 87.0836 86.8959 69.0784 86.9918 46.596Z" fill="#0050A7"/>
<path d="M46.5476 8.1375C67.8581 8.20181 84.958 25.4054 84.8615 46.6607C84.7651 67.8838 67.6331 84.9266 46.4191 84.8623C25.1729 84.798 8.04091 67.4979 8.13734 46.3713C8.26591 25.1482 25.3979 8.16966 46.5476 8.1375ZM56.2868 36.9817C56.1904 36.8209 56.1261 36.6923 56.0618 36.5958C54.3583 34.1519 52.0762 32.5763 49.119 32.0939C48.7012 32.0296 48.6369 31.8688 48.6369 31.4829C48.6369 30.3253 48.6369 29.1677 48.6369 28.0101C48.6369 27.6563 48.5405 27.5599 48.1869 27.5599C47.0619 27.5599 45.9369 27.5599 44.7798 27.5599C44.4262 27.5599 44.3298 27.6885 44.3298 28.0101C44.3298 29.232 44.3298 30.4861 44.3298 31.708C44.3298 31.9653 44.2655 32.0939 43.9762 32.1582C43.5584 32.2547 43.1405 32.3833 42.7548 32.5119C39.0263 33.8303 36.8727 37.3675 37.387 41.2584C37.7406 43.9596 39.3156 45.7603 41.7584 46.8215C43.012 47.3681 44.362 47.7218 45.6798 48.0756C47.1584 48.4614 48.6691 48.8152 49.9548 49.7155C51.1119 50.5194 51.6262 51.6449 51.4655 53.0276C51.3047 54.346 50.4048 55.1499 49.2476 55.6644C48.0905 56.1468 46.9012 56.1789 45.6798 55.9538C43.6227 55.568 42.112 54.346 40.9548 52.6739C40.8263 52.481 40.6656 52.288 40.537 52.0951C39.2192 52.8668 37.9656 53.6064 36.6799 54.3782C36.4228 54.539 36.5835 54.6998 36.6799 54.8605C38.1585 57.9797 40.5691 59.9734 44.0084 60.5844C44.3298 60.6487 44.3941 60.7773 44.3941 61.0667C44.3941 62.3529 44.3941 63.6713 44.3941 64.9576C44.3941 65.3435 44.5227 65.4721 44.9084 65.4399C45.9048 65.4399 46.9012 65.4399 47.8976 65.4399C48.7976 65.4399 48.6691 65.5043 48.6691 64.6682C48.6691 63.3498 48.6691 62.0635 48.6691 60.713C48.9905 60.6487 49.3119 60.5844 49.6012 60.52C53.1047 59.7161 56.544 56.9828 56.7368 52.7061C56.8333 50.5194 56.2868 48.5579 54.6476 47.0144C53.7476 46.1783 52.6869 45.5352 51.5297 45.1172C50.0833 44.6027 48.6048 44.2168 47.1584 43.7666C45.9691 43.4129 44.7477 43.0592 43.7191 42.2874C42.7227 41.58 42.3048 40.5832 42.4977 39.3612C42.6584 38.2358 43.3655 37.4962 44.362 37.1103C44.8441 36.9173 45.3905 36.8209 45.9048 36.7887C47.8976 36.6601 49.7298 37.0781 51.2083 38.5573C51.5619 38.911 51.8512 39.2648 52.2047 39.6506C53.5547 38.7503 54.9047 37.882 56.2868 36.9817ZM31.3764 71.7104C32.8871 71.7104 34.3656 71.7104 35.8763 71.7104C36.1656 71.7104 36.4549 71.7104 36.7442 71.7104C37.2263 71.6461 37.5156 71.3567 37.5799 70.9065C37.6442 70.4885 37.387 70.1026 36.9692 69.9097C35.8763 69.363 34.7513 68.8485 33.6906 68.2375C31.1514 66.7262 28.9335 64.829 27.0693 62.5137C25.9443 61.0989 24.9479 59.5875 24.1122 57.9797C23.9193 57.5617 23.5979 57.2723 23.1158 57.2723C22.6336 57.2723 22.4086 57.5938 22.2158 57.9797C21.6051 59.3624 20.9943 60.713 20.4158 62.0957C19.8694 63.3498 19.6444 64.636 19.9015 66.0188C20.4801 69.363 23.2765 71.7104 26.6836 71.7104C28.2264 71.7104 29.8014 71.7104 31.3442 71.7104H31.3764ZM61.8475 71.7104C63.1975 71.7104 64.5153 71.7104 65.8653 71.7104C66.6046 71.7104 67.376 71.6783 68.0831 71.5175C71.4902 70.81 73.8688 67.3372 73.2581 63.9286C72.8402 61.6777 71.6188 59.7161 70.751 57.6581C70.5581 57.2079 69.9153 57.1115 69.5296 57.433C69.3046 57.5938 69.1438 57.8511 69.0153 58.1083C67.6653 60.6487 65.9939 62.9318 63.8725 64.9254C61.6225 67.0478 59.0511 68.6877 56.1904 69.9097C55.9975 70.0061 55.7725 70.1991 55.6761 70.4242C55.3547 71.0994 55.8368 71.7426 56.6404 71.7426C58.3761 71.7426 60.1118 71.7426 61.8475 71.7426V71.7104ZM46.5798 13.1217C43.8155 13.2503 41.6941 14.4723 40.4406 17.0126C39.7977 18.2989 39.2834 19.6494 38.6727 20.9678C38.4799 21.3859 38.4477 21.8039 38.7692 22.1576C39.0906 22.5113 39.4763 22.5113 39.8941 22.3827C41.5334 21.8682 43.237 21.6431 44.9405 21.5145C46.2262 21.4502 47.5119 21.4823 48.7655 21.611C50.244 21.7718 51.7226 22.0612 53.169 22.3506C53.619 22.447 54.0047 22.5113 54.3583 22.1576C54.7118 21.7718 54.6476 21.3859 54.4547 20.9357C53.8761 19.6494 53.3297 18.331 52.719 17.0769C51.4976 14.5044 49.3762 13.2825 46.5476 13.1217H46.5798Z" fill="#0050A7"/>
</svg>
